<svg width="18" height="18" viewBox="0 0 18 18" fill="none" xmlns="http://www.w3.org/2000/svg">
<path d="M0.625 5.625C0.79076 5.625 0.949732 5.55915 1.06694 5.44194C1.18415 5.32473 1.25 5.16576 1.25 5V1.875C1.25 1.70924 1.31585 1.55027 1.43306 1.43306C1.55027 1.31585 1.70924 1.25 1.875 1.25H5.3125C5.47826 1.25 5.63723 1.18415 5.75444 1.06694C5.87165 0.949732 5.9375 0.79076 5.9375 0.625C5.9375 0.45924 5.87165 0.300268 5.75444 0.183058C5.63723 0.065848 5.47826 0 5.3125 0H1.875C1.37772 0 0.900806 0.197544 0.549175 0.549175C0.197544 0.900806 0 1.37772 0 1.875V5C0 5.16576 0.065848 5.32473 0.183058 5.44194C0.300268 5.55915 0.45924 5.625 0.625 5.625Z" fill="#00D856"/>
<path d="M15.625 0H12.1875C12.0217 0 11.8628 0.065848 11.7456 0.183058C11.6283 0.300268 11.5625 0.45924 11.5625 0.625C11.5625 0.79076 11.6283 0.949732 11.7456 1.06694C11.8628 1.18415 12.0217 1.25 12.1875 1.25H15.625C15.7908 1.25 15.9497 1.31585 16.0669 1.43306C16.1842 1.55027 16.25 1.70924 16.25 1.875V5C16.25 5.16576 16.3158 5.32473 16.4331 5.44194C16.5503 5.55915 16.7092 5.625 16.875 5.625C17.0408 5.625 17.1997 5.55915 17.3169 5.44194C17.4342 5.32473 17.5 5.16576 17.5 5V1.875C17.5 1.37772 17.3025 0.900806 16.9508 0.549175C16.5992 0.197544 16.1223 0 15.625 0Z" fill="#00D856"/>
<path d="M16.875 11.875C16.7092 11.875 16.5503 11.9408 16.4331 12.0581C16.3158 12.1753 16.25 12.3342 16.25 12.5V15.625C16.25 15.7908 16.1842 15.9497 16.0669 16.0669C15.9497 16.1842 15.7908 16.25 15.625 16.25H12.1875C12.0217 16.25 11.8628 16.3158 11.7456 16.4331C11.6283 16.5503 11.5625 16.7092 11.5625 16.875C11.5625 17.0408 11.6283 17.1997 11.7456 17.3169C11.8628 17.4342 12.0217 17.5 12.1875 17.5H15.625C16.1223 17.5 16.5992 17.3025 16.9508 16.9508C17.3025 16.5992 17.5 16.1223 17.5 15.625V12.5C17.5 12.3342 17.4342 12.1753 17.3169 12.0581C17.1997 11.9408 17.0408 11.875 16.875 11.875Z" fill="#00D856"/>
<path d="M5.3125 16.25H1.875C1.70924 16.25 1.55027 16.1842 1.43306 16.0669C1.31585 15.9497 1.25 15.7908 1.25 15.625V12.5C1.25 12.3342 1.18415 12.1753 1.06694 12.0581C0.949732 11.9408 0.79076 11.875 0.625 11.875C0.45924 11.875 0.300268 11.9408 0.183058 12.0581C0.065848 12.1753 0 12.3342 0 12.5V15.625C0 16.1223 0.197544 16.5992 0.549175 16.9508C0.900806 17.3025 1.37772 17.5 1.875 17.5H5.3125C5.47826 17.5 5.63723 17.4342 5.75444 17.3169C5.87165 17.1997 5.9375 17.0408 5.9375 16.875C5.9375 16.7092 5.87165 16.5503 5.75444 16.4331C5.63723 16.3158 5.47826 16.25 5.3125 16.25Z" fill="#00D856"/>
<path d="M16.875 8.125H0.625C0.45924 8.125 0.300268 8.19085 0.183058 8.30806C0.065848 8.42527 0 8.58424 0 8.75C0 8.91576 0.065848 9.07473 0.183058 9.19194C0.300268 9.30915 0.45924 9.375 0.625 9.375H16.875C17.0408 9.375 17.1997 9.30915 17.3169 9.19194C17.4342 9.07473 17.5 8.91576 17.5 8.75C17.5 8.58424 17.4342 8.42527 17.3169 8.30806C17.1997 8.19085 17.0408 8.125 16.875 8.125Z" fill="#00D856"/>
</svg>
