<svg width="20" height="20" viewBox="0 0 20 20" fill="none" xmlns="http://www.w3.org/2000/svg">
<g clip-path="url(#clip0_30_170)">
<path d="M19.6508 6.14373L17.9969 4.4899L19.2402 3.24713C19.3501 3.13732 19.4119 2.98853 19.4119 2.83291C19.4119 2.67728 19.3501 2.52849 19.2402 2.41865L17.5757 0.754113C17.3559 0.534386 16.9668 0.534386 16.7471 0.754113L15.5043 1.99736L13.8503 0.343214C13.3927 -0.114405 12.6507 -0.114405 12.193 0.343214C11.7353 0.800832 11.7353 1.54283 12.193 2.00048L17.9934 7.801C18.4511 8.25862 19.1931 8.25862 19.6508 7.801C20.1084 7.34338 20.1084 6.60139 19.6508 6.14373Z" fill="#00D856"/>
<path d="M7.80704 17.9995L2.00659 12.199C1.5489 11.7413 0.806983 11.7413 0.349287 12.199C-0.108332 12.6567 -0.108332 13.3986 0.349287 13.8563L2.00339 15.5104L0.762569 16.7507C0.652686 16.8606 0.590889 17.0093 0.590889 17.1649C0.590889 17.3206 0.652686 17.4694 0.762569 17.5792L2.4271 19.2432C2.54152 19.3577 2.69144 19.4149 2.84136 19.4149C2.99128 19.4149 3.14121 19.3577 3.25562 19.2432L4.49593 18.0029L6.14977 19.6568C6.60738 20.1144 7.34938 20.1144 7.80704 19.6568C8.26473 19.1991 8.26473 18.4571 7.80704 17.9995Z" fill="#00D856"/>
<path d="M10.5357 6.97235L6.97842 10.5417L9.46437 13.0277L13.0216 9.45822L10.5357 6.97235Z" fill="#00D856"/>
<path d="M17.9935 9.45826L10.5357 2.00047C10.0781 1.54285 9.33605 1.54285 8.87843 2.00047C8.42073 2.45817 8.42073 3.20008 8.87843 3.65778L16.3362 11.1156C16.7938 11.5732 17.5358 11.5732 17.9935 11.1156C18.4512 10.6579 18.4512 9.91596 17.9935 9.45826Z" fill="#00D856"/>
<path d="M11.1217 16.3422L3.66383 8.88438C3.20621 8.42676 2.46422 8.42676 2.0066 8.88438C1.54891 9.34208 1.54891 10.0841 2.0066 10.5417L9.46439 17.9995C9.92201 18.4571 10.664 18.4571 11.1217 17.9995C11.5794 17.5419 11.5794 16.7999 11.1217 16.3422Z" fill="#00D856"/>
</g>
<defs>
<clipPath id="clip0_30_170">
<rect width="20" height="20" fill="white"/>
</clipPath>
</defs>
</svg>
