<svg width="20" height="20" viewBox="0 0 20 20" fill="none" xmlns="http://www.w3.org/2000/svg">
<g clip-path="url(#clip0_106_7)">
<path d="M10 4.375C11.2081 4.375 12.1875 3.39562 12.1875 2.1875C12.1875 0.979377 11.2081 0 10 0C8.79188 0 7.8125 0.979377 7.8125 2.1875C7.8125 3.39562 8.79188 4.375 10 4.375Z" fill="#00D856"/>
<path d="M17.0703 5.00001H2.92969C2.64997 5.00001 2.3817 5.11113 2.18391 5.30892C1.98612 5.50672 1.875 5.77498 1.875 6.0547C1.875 6.33442 1.98612 6.60268 2.18391 6.80048C2.3817 6.99827 2.64997 7.10939 2.92969 7.10939H6.90938C7.1793 7.10939 7.49531 7.23009 7.67422 7.69532C7.8832 8.23556 7.78086 9.27892 7.65195 10.0871L7.4832 11.0422C7.48352 11.0447 7.48326 11.0472 7.48245 11.0496C7.48163 11.0519 7.48029 11.0541 7.47852 11.0559L6.12695 18.7438C6.07794 19.0228 6.14145 19.31 6.30361 19.5423C6.46576 19.7747 6.71334 19.9333 6.99219 19.9836C7.13005 20.008 7.27138 20.0047 7.40797 19.9741C7.54457 19.9434 7.67371 19.8859 7.78789 19.8049C7.90208 19.7238 7.99904 19.621 8.07313 19.5022C8.14723 19.3834 8.19699 19.2511 8.21953 19.1129L9.15352 13.7692C9.15352 13.7692 9.45312 12.5 10 12.5C10.5559 12.5 10.8492 13.7692 10.8492 13.7692L11.7832 19.1176C11.8058 19.257 11.8559 19.3905 11.9306 19.5103C12.0053 19.6301 12.1031 19.7339 12.2184 19.8155C12.3336 19.8972 12.4639 19.9551 12.6017 19.9858C12.7395 20.0166 12.8821 20.0196 13.0211 19.9948C13.1601 19.9699 13.2927 19.9176 13.4113 19.8409C13.5299 19.7642 13.632 19.6647 13.7118 19.5482C13.7915 19.4316 13.8472 19.3004 13.8757 19.1621C13.9042 19.0238 13.9049 18.8812 13.8777 18.7426L12.5258 11.0547C12.5261 11.0522 12.5258 11.0498 12.5251 11.0474C12.5243 11.0451 12.5231 11.0429 12.5215 11.041L12.3523 10.086C12.2234 9.27775 12.1211 8.23439 12.3301 7.69415C12.5082 7.23009 12.8344 7.10822 13.0832 7.10822H17.0703C17.35 7.10822 17.6183 6.9971 17.8161 6.7993C18.0139 6.60151 18.125 6.33325 18.125 6.05353C18.125 5.77381 18.0139 5.50554 17.8161 5.30775C17.6183 5.10996 17.35 4.99884 17.0703 4.99884V5.00001Z" fill="#00D856"/>
</g>
<defs>
<clipPath id="clip0_106_7">
<rect width="20" height="20" fill="white"/>
</clipPath>
</defs>
</svg>
