<svg width="20" height="20" viewBox="0 0 20 20" fill="none" xmlns="http://www.w3.org/2000/svg">
<path d="M2.5332 2C1.1384 2 0 3.1384 0 4.5332V15.4668C0 16.8616 1.1384 18 2.5332 18H17.4668C18.8616 18 20 16.8616 20 15.4668V4.5332C20 3.1384 18.8616 2 17.4668 2H2.5332ZM2.5332 3H17.4668C18.325 3 19 3.67496 19 4.5332V6H1V4.5332C1 3.67496 1.67496 3 2.5332 3ZM14.5 10.5C14.6829 10.5 14.7861 10.5776 14.8457 10.627C14.9053 10.6763 14.9366 10.7161 14.9629 10.752C15.0155 10.8237 15.047 10.8852 15.0801 10.9512C15.1463 11.0832 15.2078 11.2316 15.2676 11.3789C15.3223 11.5138 15.3714 11.6397 15.4141 11.7402C15.523 11.7497 15.6592 11.7591 15.8047 11.7695C15.9632 11.7809 16.1235 11.7942 16.2695 11.8164C16.3426 11.8275 16.4096 11.8374 16.4941 11.8652C16.5364 11.8792 16.5851 11.8961 16.6504 11.9375C16.7157 11.9789 16.8204 12.0526 16.877 12.2266C16.9335 12.4005 16.8918 12.5238 16.8633 12.5957C16.8348 12.6676 16.8073 12.708 16.7813 12.7441C16.7292 12.8164 16.6795 12.8661 16.627 12.918C16.5218 13.0217 16.4009 13.1261 16.2793 13.2285C16.168 13.3223 16.0629 13.4089 15.9805 13.4805C16.0051 13.5871 16.0391 13.7194 16.0742 13.8613C16.1124 14.0156 16.1498 14.1707 16.1738 14.3164C16.1858 14.3893 16.1957 14.4579 16.1953 14.5469C16.1951 14.5914 16.193 14.6419 16.1738 14.7168C16.1546 14.7917 16.1167 14.916 15.9688 15.0234C15.8208 15.1309 15.6924 15.128 15.6152 15.1231C15.538 15.1182 15.4897 15.1034 15.4473 15.0899C15.3625 15.0627 15.3019 15.032 15.2363 14.9981C15.1052 14.9302 14.9689 14.8477 14.834 14.7637C14.7106 14.6869 14.5935 14.6129 14.5 14.5566C14.4065 14.6129 14.2894 14.6869 14.166 14.7637C14.0311 14.8477 13.8949 14.9302 13.7637 14.9981C13.6981 15.032 13.6375 15.0627 13.5527 15.0899C13.5103 15.1034 13.462 15.1182 13.3848 15.1231C13.3076 15.128 13.1792 15.131 13.0313 15.0234C12.8833 14.916 12.8454 14.7917 12.8262 14.7168C12.807 14.6419 12.8049 14.5914 12.8047 14.5469C12.8043 14.4579 12.8142 14.3893 12.8262 14.3164C12.8502 14.1707 12.8876 14.0156 12.9258 13.8613C12.9609 13.7194 12.9949 13.5871 13.0195 13.4805C12.9371 13.4089 12.832 13.3223 12.7207 13.2285C12.5991 13.1261 12.4782 13.0217 12.3731 12.918C12.3205 12.8661 12.2708 12.8164 12.2188 12.7441C12.1928 12.708 12.1652 12.6676 12.1367 12.5957C12.1082 12.5238 12.0665 12.4005 12.1231 12.2266C12.1796 12.0526 12.2843 11.9789 12.3496 11.9375C12.4149 11.8961 12.4636 11.8792 12.5059 11.8652C12.5904 11.8374 12.6575 11.8275 12.7305 11.8164C12.8765 11.7942 13.0368 11.7809 13.1953 11.7695C13.3408 11.7591 13.4771 11.7497 13.5859 11.7402C13.6286 11.6397 13.6777 11.5138 13.7324 11.3789C13.7922 11.2316 13.8537 11.0832 13.9199 10.9512C13.953 10.8852 13.9845 10.8237 14.0371 10.752C14.0634 10.7161 14.0947 10.6763 14.1543 10.627C14.2139 10.5776 14.3171 10.5 14.5 10.5Z" fill="#00D856"/>
</svg>
