<svg width="20" height="20" viewBox="0 0 20 20" fill="none" xmlns="http://www.w3.org/2000/svg">
<path d="M5.3008 11.4563C5.3627 11.3629 5.42649 11.2712 5.49454 11.1818L5.6333 10.9995L5.47075 10.9047C4.91396 10.5801 4.27353 10.4086 3.61813 10.4086C1.62313 10.4084 0 11.9895 0 13.9327V15.0155C0 15.2157 0.167904 15.3788 0.374398 15.3788H4.42269V14.355C4.42269 14.237 4.42805 14.1122 4.43923 13.9624L4.44474 13.8905C4.45655 13.7561 4.47325 13.6246 4.49357 13.5003L4.49672 13.4831C4.51924 13.3486 4.54791 13.2129 4.58319 13.0717C4.61658 12.9408 4.65612 12.8074 4.70117 12.6754L4.54177 12.6228L4.71077 12.6472C4.79866 12.3937 4.90703 12.1446 5.03288 11.9071L5.06044 11.855C5.11935 11.7463 5.18283 11.6387 5.24914 11.5351L5.3008 11.4563Z" fill="#00D856"/>
<path d="M3.61812 9.50857C4.67312 9.50857 5.53138 8.67299 5.53138 7.64587C5.53138 6.61876 4.67312 5.78317 3.61812 5.78317C2.56313 5.78317 1.70486 6.61876 1.70486 7.64603C1.70486 8.67299 2.56313 9.50857 3.61812 9.50857Z" fill="#00D856"/>
<path d="M15.0605 14.0297C15.0572 13.9791 15.0538 13.9284 15.0486 13.8782C15.0452 13.8445 15.0405 13.8111 15.0364 13.7775C15.0311 13.7326 15.0257 13.6878 15.0189 13.6435C15.0137 13.609 15.0073 13.5745 15.0013 13.54C14.9937 13.4967 14.9862 13.4534 14.9775 13.4104C14.9707 13.377 14.963 13.3438 14.9555 13.3104C14.9457 13.2666 14.9355 13.2226 14.9244 13.1793C14.9166 13.1483 14.9079 13.1174 14.8994 13.0867C14.8866 13.0407 14.8734 12.9949 14.8592 12.9495C14.8507 12.9223 14.8417 12.895 14.8329 12.8679C14.8167 12.8188 14.7997 12.77 14.782 12.7214C14.7735 12.6988 14.7652 12.6762 14.7565 12.6536C14.7361 12.6005 14.7148 12.5479 14.6923 12.4956C14.6849 12.4781 14.6775 12.4608 14.6697 12.4433C14.6442 12.3856 14.6178 12.3288 14.5902 12.2724C14.5844 12.2606 14.5787 12.2488 14.5729 12.2371C14.5422 12.1754 14.5099 12.1142 14.4765 12.0539C14.473 12.0475 14.4694 12.041 14.4659 12.0345C14.4291 11.9689 14.3908 11.9041 14.3509 11.8403C14.3502 11.8391 14.3495 11.838 14.3487 11.8367C13.4727 10.4349 11.8886 9.49692 10.0837 9.49692C8.54155 9.49692 7.16083 10.1821 6.24491 11.2558C6.23798 11.264 6.23121 11.272 6.22444 11.2801C6.18238 11.33 6.14159 11.3809 6.10158 11.4324C6.0926 11.4439 6.08347 11.4557 6.07449 11.4675C6.03842 11.5149 6.00314 11.5633 5.9688 11.6119C5.95714 11.6285 5.94549 11.6449 5.93415 11.6617C5.90438 11.7052 5.8754 11.7496 5.84689 11.794C5.83271 11.8164 5.81822 11.8384 5.80452 11.861C5.78121 11.8988 5.759 11.9372 5.73679 11.9755C5.71962 12.0052 5.70198 12.0347 5.6856 12.0648C5.67 12.093 5.65551 12.1218 5.64039 12.1506C5.61929 12.1909 5.59787 12.231 5.57786 12.2719C5.57644 12.2746 5.57534 12.2774 5.57392 12.2803C5.45264 12.5299 5.35388 12.7893 5.27781 13.0552C5.27513 13.0646 5.2723 13.0739 5.26962 13.0832C5.25402 13.1395 5.23985 13.1959 5.2263 13.2524C5.22205 13.2699 5.2178 13.2874 5.21386 13.3047C5.20205 13.3565 5.19134 13.4085 5.18126 13.4605C5.17653 13.4846 5.17228 13.5087 5.16802 13.5328C5.15968 13.5802 5.15196 13.6276 5.14503 13.6753C5.14046 13.707 5.13637 13.7388 5.13258 13.7708C5.12739 13.8125 5.12219 13.8541 5.11809 13.896C5.11384 13.9388 5.11101 13.9818 5.10786 14.0248C5.10565 14.0573 5.10266 14.0897 5.10108 14.1223C5.0973 14.1993 5.09494 14.2768 5.09494 14.3546V15.8778C5.09494 16.1052 5.28663 16.2901 5.52195 16.2901H14.646C14.8813 16.2901 15.073 16.1052 15.073 15.8778V14.355C15.073 14.2746 15.0708 14.1946 15.0667 14.1152C15.0652 14.0867 15.0624 14.0582 15.0605 14.0297Z" fill="#00D856"/>
<path d="M9.96699 8.44745C11.3094 8.44745 12.4014 7.38474 12.4014 6.07868C12.4014 4.77261 11.3094 3.7099 9.96699 3.7099C8.62454 3.7099 7.53253 4.77261 7.53253 6.07868C7.53253 7.38474 8.6247 8.44745 9.96699 8.44745Z" fill="#00D856"/>
<path d="M16.3817 10.158C15.6718 10.158 14.9827 10.3594 14.3894 10.7408L14.2323 10.8416L14.3511 10.9843C14.6163 11.3026 14.8452 11.654 15.0309 12.0282L15.0391 12.0451C15.0733 12.1147 15.106 12.1853 15.138 12.2577L15.1498 12.2848C15.1797 12.3546 15.2083 12.4249 15.2402 12.5083L15.2464 12.5239C15.3072 12.6866 15.3596 12.8511 15.4025 13.0132L15.4124 13.0535C15.4294 13.1192 15.4451 13.1852 15.4595 13.2521L15.4766 13.3379C15.4872 13.3907 15.497 13.4435 15.5058 13.4969C15.5111 13.5293 15.516 13.5616 15.5209 13.594C15.5285 13.6455 15.5354 13.6971 15.5412 13.7493C15.5449 13.7818 15.5488 13.8141 15.5519 13.8465C15.5575 13.9024 15.5614 13.9587 15.5649 14.0151L15.5705 14.0998C15.5746 14.1844 15.5773 14.2693 15.5773 14.3545V15.1279H19.6256C19.8321 15.1279 20 14.9648 20 14.7645V13.6816C19.9998 11.7389 18.3767 10.158 16.3817 10.158Z" fill="#00D856"/>
<path d="M16.3817 9.34509C17.4367 9.34509 18.295 8.5095 18.295 7.48239C18.295 6.45527 17.4367 5.61969 16.3817 5.61969C15.3267 5.61969 14.4684 6.45527 14.4684 7.48239C14.4684 8.5095 15.3267 9.34509 16.3817 9.34509Z" fill="#00D856"/>
</svg>
