<svg width="20" height="20" viewBox="0 0 20 20" fill="none" xmlns="http://www.w3.org/2000/svg">
<g clip-path="url(#clip0_30_166)">
<path d="M19.4607 8.69904C19.4603 8.69858 19.4598 8.69812 19.4594 8.69766L11.301 0.539551C10.9532 0.19165 10.4909 0 9.99907 0C9.50728 0 9.04494 0.191498 8.69704 0.539398L0.542898 8.69339C0.540151 8.69614 0.537404 8.69904 0.534658 8.70178C-0.179453 9.42001 -0.178233 10.5853 0.538167 11.3017C0.865468 11.6292 1.29775 11.8188 1.75994 11.8387C1.77871 11.8405 1.79763 11.8414 1.8167 11.8414H2.14187V17.8453C2.14187 19.0334 3.10851 20 4.29686 20H7.4887C7.81218 20 8.07463 19.7377 8.07463 19.4141V14.707C8.07463 14.1649 8.51561 13.7239 9.05776 13.7239H10.9404C11.4825 13.7239 11.9235 14.1649 11.9235 14.707V19.4141C11.9235 19.7377 12.1858 20 12.5094 20H15.7013C16.8896 20 17.8563 19.0334 17.8563 17.8453V11.8414H18.1578C18.6494 11.8414 19.1118 11.6499 19.4598 11.302C20.177 10.5844 20.1773 9.41711 19.4607 8.69904Z" fill="#00D856"/>
</g>
<defs>
<clipPath id="clip0_30_166">
<rect width="20" height="20" fill="white"/>
</clipPath>
</defs>
</svg>
