<svg width="20" height="20" viewBox="0 0 20 20" fill="none" xmlns="http://www.w3.org/2000/svg">
<g clip-path="url(#clip0_106_2)">
<path d="M15.2941 4.85295C17.8931 4.85295 20 6.95983 20 9.55885C20 12.0073 18.1301 14.019 15.7405 14.2439C14.9999 17.2792 11.4834 19.853 7.94117 19.853C7.9168 19.853 7.89242 19.8515 7.8682 19.8485C5.17445 19.5117 0 10.1484 0 6.02944C0 2.48979 1.32414 0.147095 2.94117 0.147095C3.55027 0.147095 4.53851 0.451196 5.97894 1.05768C6.63332 1.33323 7.05883 1.97409 7.05883 2.68409V3.53764C7.05883 4.20608 6.68117 4.81713 6.08332 5.11604L6.0377 5.13647L3.56852 6.11881C3.8209 7.42827 5.28996 9.40346 7.82668 11.8833C8.22824 10.5707 9.26941 9.52604 10.607 9.13557C10.821 6.73491 12.8378 4.85295 15.2941 4.85295Z" fill="#00D856"/>
</g>
<defs>
<clipPath id="clip0_106_2">
<rect width="20" height="20" fill="white"/>
</clipPath>
</defs>
</svg>
