<svg width="20" height="20" viewBox="0 0 20 20" fill="none" xmlns="http://www.w3.org/2000/svg">
<g clip-path="url(#clip0_30_157)">
<path fill-rule="evenodd" clip-rule="evenodd" d="M8.74452 4.13591C6.49975 6.72803 3.49156 8.7564 0.975595 9.89875C0.576236 10.0724 0.26325 10.3993 0.107222 10.8061C-0.0497358 11.2166 -0.0339472 11.6736 0.151801 12.072C0.533514 12.8967 1.10841 14.1301 1.49383 14.9567C1.68144 15.357 2.02322 15.6644 2.44115 15.8074C2.85537 15.9486 3.30952 15.917 3.69959 15.7201C6.18491 14.5165 9.67605 13.5385 13.1031 13.4818L8.74452 4.13591ZM9.71227 2.91369L14.6597 13.5227C14.9392 13.5422 15.2169 13.5691 15.4928 13.6035C16.089 13.6936 16.6769 13.4558 17.0345 12.9831C17.3948 12.5057 17.4626 11.8686 17.21 11.3262C16.1317 8.98951 14.1377 4.71266 13.0474 2.37409C12.792 1.82799 12.2561 1.46763 11.6543 1.43884C11.058 1.40912 10.4933 1.71004 10.185 2.21899C10.0345 2.45396 9.87666 2.68614 9.71227 2.91369Z" fill="#00D856"/>
<path fill-rule="evenodd" clip-rule="evenodd" d="M16.8998 6.78933L18.5827 6.00454C18.931 5.84201 19.0823 5.42686 18.9198 5.07859C18.7573 4.73031 18.3421 4.57892 17.9939 4.74145L16.311 5.52624C15.9618 5.68877 15.8113 6.10392 15.9738 6.4522C16.1364 6.80047 16.5506 6.95186 16.8998 6.78933Z" fill="#00D856"/>
<path fill-rule="evenodd" clip-rule="evenodd" d="M17.3196 9.9545L19.0647 10.5898C19.426 10.7216 19.8263 10.535 19.9582 10.1737C20.0891 9.8124 19.9024 9.41211 19.5421 9.28116L17.7961 8.6459C17.4348 8.51402 17.0345 8.7007 16.9035 9.06198C16.7716 9.42326 16.9583 9.82355 17.3196 9.9545Z" fill="#00D856"/>
<path fill-rule="evenodd" clip-rule="evenodd" d="M15.4649 3.64649L16.1001 1.90139C16.232 1.54011 16.0453 1.13982 15.6841 1.00794C15.3228 0.876983 14.9225 1.06366 14.7915 1.42494L14.1563 3.17005C14.0244 3.53133 14.2111 3.93162 14.5724 4.06257C14.9336 4.19445 15.333 4.00777 15.4649 3.64649Z" fill="#00D856"/>
<path fill-rule="evenodd" clip-rule="evenodd" d="M9.60825 14.7765C8.32473 15.0189 7.09043 15.3644 5.97223 15.7712L7.05607 18.0949C7.43593 18.9085 8.40275 19.2605 9.21632 18.8816C9.35471 18.8165 9.49866 18.7497 9.63704 18.6847C10.028 18.5026 10.3299 18.1729 10.4776 17.768C10.6252 17.3631 10.6057 16.9154 10.4228 16.5253L9.60825 14.7765Z" fill="#00D856"/>
</g>
<defs>
<clipPath id="clip0_30_157">
<rect width="20" height="20" fill="white"/>
</clipPath>
</defs>
</svg>
